<svg width="79" height="83" viewBox="0 0 79 83" fill="none" xmlns="http://www.w3.org/2000/svg">
<path d="M70.5655 75.6963L73.3842 78.515L70.5655 81.3323C70.3402 81.5589 70.3402 81.9256 70.5655 82.1523C70.7922 82.3789 71.1588 82.3789 71.3855 82.1523L74.2028 79.3336L77.0215 82.1523C77.2481 82.3789 77.6162 82.3789 77.8415 82.1523C78.0682 81.9256 78.0682 81.5589 77.8415 81.3323L75.0241 78.515L77.8415 75.6963C78.0682 75.4696 78.0682 75.103 77.8415 74.8763C77.6162 74.6496 77.2481 74.6496 77.0215 74.8763L74.2028 77.6936L71.3855 74.8763C71.1588 74.6496 70.7922 74.6496 70.5655 74.8763C70.3402 75.103 70.3402 75.4696 70.5655 75.6963Z" fill="#131112"/>
<path d="M47.4092 75.6963L50.2279 78.515L47.4092 81.3323C47.1839 81.5589 47.1839 81.9256 47.4092 82.1523C47.6359 82.3789 48.0039 82.3789 48.2306 82.1523L51.0479 79.3336L53.8666 82.1523C54.0919 82.3789 54.4599 82.3789 54.6865 82.1523C54.9119 81.9256 54.9119 81.5589 54.6865 81.3323L51.8679 78.515L54.6865 75.6963C54.9132 75.4696 54.9132 75.103 54.6865 74.8763C54.4599 74.6496 54.0919 74.6496 53.8666 74.8763L51.0479 77.6936L48.2306 74.8763C48.0039 74.6496 47.6359 74.6496 47.4092 74.8763C47.1839 75.103 47.1839 75.4696 47.4092 75.6963Z" fill="#131112"/>
<path d="M24.254 75.6963L27.0713 78.515L24.254 81.3323C24.0273 81.5589 24.0273 81.9256 24.254 82.1523C24.4807 82.3789 24.8473 82.3789 25.074 82.1523L27.8927 79.3336L30.71 82.1523C30.9367 82.3789 31.3033 82.3789 31.53 82.1523C31.7567 81.9256 31.7567 81.5589 31.53 81.3323L28.7113 78.515L31.53 75.6963C31.7567 75.4696 31.7567 75.103 31.53 74.8763C31.3033 74.6496 30.9367 74.6496 30.71 74.8763L27.8927 77.6936L25.074 74.8763C24.8473 74.6496 24.4807 74.6496 24.254 74.8763C24.0273 75.103 24.0273 75.4696 24.254 75.6963Z" fill="#131112"/>
<path d="M1.09773 75.6963L3.91642 78.515L1.09773 81.3323C0.871068 81.5589 0.871068 81.9256 1.09773 82.1523C1.3244 82.3789 1.69105 82.3789 1.91772 82.1523L4.73641 79.3336L7.55372 82.1523C7.78039 82.3789 8.14708 82.3789 8.37374 82.1523C8.60041 81.9256 8.60041 81.5589 8.37374 81.3323L5.55639 78.515L8.37374 75.6963C8.60041 75.4696 8.60041 75.103 8.37374 74.8763C8.14841 74.6496 7.78039 74.6496 7.55506 74.8763L4.73641 77.6936L1.91772 74.8763C1.69105 74.6496 1.3244 74.6496 1.09773 74.8763C0.871068 75.103 0.871068 75.4696 1.09773 75.6963Z" fill="#131112"/>
<path d="M70.5655 57.2406L73.3842 60.0579L70.5655 62.8766C70.3402 63.1019 70.3402 63.4686 70.5655 63.6952C70.7922 63.9219 71.1588 63.9219 71.3855 63.6952L74.2028 60.8779L77.0215 63.6952C77.2481 63.9219 77.6162 63.9219 77.8415 63.6952C78.0682 63.4686 78.0682 63.1019 77.8415 62.8766L75.0241 60.0579L77.8415 57.2392C78.0682 57.0126 78.0682 56.6459 77.8415 56.4192C77.6162 56.1926 77.2481 56.1926 77.0215 56.4192L74.2028 59.2379L71.3855 56.4192C71.1588 56.1926 70.7922 56.1926 70.5655 56.4192C70.3402 56.6459 70.3402 57.0139 70.5655 57.2406Z" fill="#131112"/>
<path d="M47.4092 57.2406L50.2279 60.0579L47.4092 62.8766C47.1839 63.1019 47.1839 63.4686 47.4092 63.6952C47.6359 63.9219 48.0039 63.9219 48.2306 63.6952L51.0479 60.8779L53.8666 63.6952C54.0919 63.9219 54.4599 63.9219 54.6865 63.6952C54.9119 63.4686 54.9119 63.1019 54.6865 62.8766L51.8679 60.0579L54.6865 57.2392C54.9132 57.0126 54.9132 56.6459 54.6865 56.4192C54.4599 56.1926 54.0919 56.1926 53.8666 56.4192L51.0479 59.2379L48.2306 56.4192C48.0039 56.1926 47.6359 56.1926 47.4092 56.4192C47.1839 56.6459 47.1839 57.0139 47.4092 57.2406Z" fill="#131112"/>
<path d="M24.254 57.2406L27.0713 60.0579L24.254 62.8766C24.0273 63.1019 24.0273 63.4686 24.254 63.6952C24.4807 63.9219 24.8473 63.9219 25.074 63.6952L27.8927 60.8779L30.71 63.6952C30.9367 63.9219 31.3033 63.9219 31.53 63.6952C31.7567 63.4686 31.7567 63.1019 31.53 62.8766L28.7113 60.0579L31.53 57.2392C31.7567 57.0126 31.7567 56.6459 31.53 56.4192C31.3033 56.1926 30.9367 56.1926 30.71 56.4192L27.8927 59.2379L25.074 56.4192C24.8473 56.1926 24.4807 56.1926 24.254 56.4192C24.0273 56.6459 24.0273 57.0139 24.254 57.2406Z" fill="#131112"/>
<path d="M1.09773 57.2406L3.91642 60.0579L1.09773 62.8766C0.871068 63.1019 0.871068 63.4686 1.09773 63.6952C1.3244 63.9219 1.69105 63.9219 1.91772 63.6952L4.73641 60.8779L7.55372 63.6952C7.78039 63.9219 8.14708 63.9219 8.37374 63.6952C8.60041 63.4686 8.60041 63.1019 8.37374 62.8766L5.55639 60.0579L8.37374 57.2392C8.60041 57.0126 8.60041 56.6459 8.37374 56.4192C8.14841 56.1926 7.78039 56.1926 7.55506 56.4192L4.73641 59.2379L1.91772 56.4192C1.69105 56.1926 1.3244 56.1926 1.09773 56.4192C0.871068 56.6459 0.871068 57.0139 1.09773 57.2406Z" fill="#131112"/>
<path d="M70.5655 38.7828L73.3842 41.6028L70.5655 44.4201C70.3402 44.6468 70.3402 45.0135 70.5655 45.2402C70.7922 45.4668 71.1588 45.4668 71.3855 45.2402L74.2028 42.4215L77.0215 45.2402C77.2481 45.4668 77.6162 45.4668 77.8415 45.2402C78.0682 45.0135 78.0682 44.6468 77.8415 44.4201L75.0241 41.6028L77.8415 38.7828C78.0682 38.5575 78.0682 38.1895 77.8415 37.9641C77.6162 37.7375 77.2481 37.7375 77.0215 37.9641L74.2028 40.7815L71.3855 37.9641C71.1588 37.7375 70.7922 37.7375 70.5655 37.9641C70.3402 38.1895 70.3402 38.5575 70.5655 38.7828Z" fill="#131112"/>
<path d="M47.4092 38.7828L50.2279 41.6028L47.4092 44.4201C47.1839 44.6468 47.1839 45.0135 47.4092 45.2402C47.6359 45.4668 48.0039 45.4668 48.2306 45.2402L51.0479 42.4215L53.8666 45.2402C54.0919 45.4668 54.4599 45.4668 54.6865 45.2402C54.9119 45.0135 54.9119 44.6468 54.6865 44.4201L51.8679 41.6028L54.6865 38.7828C54.9132 38.5575 54.9132 38.1895 54.6865 37.9641C54.4599 37.7375 54.0919 37.7375 53.8666 37.9641L51.0479 40.7815L48.2306 37.9641C48.0039 37.7375 47.6359 37.7375 47.4092 37.9641C47.1839 38.1895 47.1839 38.5575 47.4092 38.7828Z" fill="#131112"/>
<path d="M24.254 38.7828L27.0713 41.6028L24.254 44.4201C24.0273 44.6468 24.0273 45.0135 24.254 45.2402C24.4807 45.4668 24.8473 45.4668 25.074 45.2402L27.8927 42.4215L30.71 45.2402C30.9367 45.4668 31.3033 45.4668 31.53 45.2402C31.7567 45.0135 31.7567 44.6468 31.53 44.4201L28.7113 41.6028L31.53 38.7828C31.7567 38.5575 31.7567 38.1895 31.53 37.9641C31.3033 37.7375 30.9367 37.7375 30.71 37.9641L27.8927 40.7815L25.074 37.9641C24.8473 37.7375 24.4807 37.7375 24.254 37.9641C24.0273 38.1895 24.0273 38.5575 24.254 38.7828Z" fill="#131112"/>
<path d="M1.09773 38.7828L3.91642 41.6028L1.09773 44.4201C0.871068 44.6468 0.871068 45.0135 1.09773 45.2402C1.3244 45.4668 1.69105 45.4668 1.91772 45.2402L4.73641 42.4215L7.55372 45.2402C7.78039 45.4668 8.14708 45.4668 8.37374 45.2402C8.60041 45.0135 8.60041 44.6468 8.37374 44.4201L5.55639 41.6028L8.37374 38.7828C8.60041 38.5575 8.60041 38.1895 8.37374 37.9641C8.14841 37.7375 7.78039 37.7375 7.55506 37.9641L4.73641 40.7815L1.91772 37.9641C1.69105 37.7375 1.3244 37.7375 1.09773 37.9641C0.871068 38.1895 0.871068 38.5575 1.09773 38.7828Z" fill="#131112"/>
<path d="M70.5655 20.3291L73.3842 23.1478L70.5655 25.9651C70.3402 26.1918 70.3402 26.5584 70.5655 26.7851C70.7922 27.0117 71.1588 27.0117 71.3855 26.7851L74.2028 23.9665L77.0215 26.7851C77.2481 27.0117 77.6162 27.0117 77.8415 26.7851C78.0682 26.5584 78.0682 26.1918 77.8415 25.9651L75.0241 23.1478L77.8415 20.3291C78.0682 20.1024 78.0682 19.7344 77.8415 19.5091C77.6162 19.2824 77.2481 19.2824 77.0215 19.5091L74.2028 22.3278L71.3855 19.5091C71.1588 19.2824 70.7922 19.2824 70.5655 19.5091C70.3402 19.7344 70.3402 20.1024 70.5655 20.3291Z" fill="#131112"/>
<path d="M47.4092 20.3291L50.2279 23.1478L47.4092 25.9651C47.1839 26.1918 47.1839 26.5584 47.4092 26.7851C47.6359 27.0117 48.0039 27.0117 48.2306 26.7851L51.0479 23.9665L53.8666 26.7851C54.0919 27.0117 54.4599 27.0117 54.6865 26.7851C54.9119 26.5584 54.9119 26.1918 54.6865 25.9651L51.8679 23.1478L54.6865 20.3291C54.9132 20.1024 54.9132 19.7344 54.6865 19.5091C54.4599 19.2824 54.0919 19.2824 53.8666 19.5091L51.0479 22.3278L48.2306 19.5091C48.0039 19.2824 47.6359 19.2824 47.4092 19.5091C47.1839 19.7344 47.1839 20.1024 47.4092 20.3291Z" fill="#131112"/>
<path d="M24.254 20.3291L27.0713 23.1478L24.254 25.9651C24.0273 26.1918 24.0273 26.5584 24.254 26.7851C24.4807 27.0117 24.8473 27.0117 25.074 26.7851L27.8927 23.9665L30.71 26.7851C30.9367 27.0117 31.3033 27.0117 31.53 26.7851C31.7567 26.5584 31.7567 26.1918 31.53 25.9651L28.7113 23.1478L31.53 20.3291C31.7567 20.1024 31.7567 19.7344 31.53 19.5091C31.3033 19.2824 30.9367 19.2824 30.71 19.5091L27.8927 22.3278L25.074 19.5091C24.8473 19.2824 24.4807 19.2824 24.254 19.5091C24.0273 19.7344 24.0273 20.1024 24.254 20.3291Z" fill="#131112"/>
<path d="M1.09773 20.3291L3.91642 23.1478L1.09773 25.9651C0.871068 26.1918 0.871068 26.5584 1.09773 26.7851C1.3244 27.0117 1.69105 27.0117 1.91772 26.7851L4.73641 23.9665L7.55372 26.7851C7.78039 27.0117 8.14708 27.0117 8.37374 26.7851C8.60041 26.5584 8.60041 26.1918 8.37374 25.9651L5.55639 23.1478L8.37374 20.3291C8.60041 20.1024 8.60041 19.7344 8.37374 19.5091C8.14841 19.2824 7.78039 19.2824 7.55506 19.5091L4.73641 22.3278L1.91772 19.5091C1.69105 19.2824 1.3244 19.2824 1.09773 19.5091C0.871068 19.7344 0.871068 20.1024 1.09773 20.3291Z" fill="#131112"/>
<path d="M70.5655 1.87495L73.3842 4.69233L70.5655 7.51095C70.3402 7.73761 70.3402 8.10433 70.5655 8.331C70.7922 8.55633 71.1588 8.55633 71.3855 8.331L74.2028 5.51232L77.0215 8.331C77.2481 8.55633 77.6162 8.55633 77.8415 8.331C78.0682 8.10433 78.0682 7.73761 77.8415 7.51095L75.0241 4.69233L77.8415 1.87364C78.0682 1.64698 78.0682 1.28032 77.8415 1.05366C77.6162 0.828323 77.2481 0.828323 77.0215 1.05366L74.2028 3.87228L71.3855 1.05366C71.1588 0.828323 70.7922 0.828323 70.5655 1.05366C70.3402 1.28032 70.3402 1.64828 70.5655 1.87495Z" fill="#131112"/>
<path d="M47.4092 1.87495L50.2279 4.69233L47.4092 7.51095C47.1839 7.73761 47.1839 8.10433 47.4092 8.331C47.6359 8.55633 48.0039 8.55633 48.2306 8.331L51.0479 5.51232L53.8666 8.331C54.0919 8.55633 54.4599 8.55633 54.6865 8.331C54.9119 8.10433 54.9119 7.73761 54.6865 7.51095L51.8679 4.69233L54.6865 1.87364C54.9132 1.64698 54.9132 1.28032 54.6865 1.05366C54.4599 0.828323 54.0919 0.828323 53.8666 1.05366L51.0479 3.87228L48.2306 1.05366C48.0039 0.828323 47.6359 0.828323 47.4092 1.05366C47.1839 1.28032 47.1839 1.64828 47.4092 1.87495Z" fill="#131112"/>
<path d="M24.254 1.87495L27.0713 4.69233L24.254 7.51095C24.0273 7.73761 24.0273 8.10433 24.254 8.331C24.4807 8.55633 24.8473 8.55633 25.074 8.331L27.8927 5.51232L30.71 8.331C30.9367 8.55633 31.3033 8.55633 31.53 8.331C31.7567 8.10433 31.7567 7.73761 31.53 7.51095L28.7113 4.69233L31.53 1.87364C31.7567 1.64698 31.7567 1.28032 31.53 1.05366C31.3033 0.828323 30.9367 0.828323 30.71 1.05366L27.8927 3.87228L25.074 1.05366C24.8473 0.828323 24.4807 0.828323 24.254 1.05366C24.0273 1.28032 24.0273 1.64828 24.254 1.87495Z" fill="#131112"/>
<path d="M1.09773 1.87495L3.91642 4.69233L1.09773 7.51095C0.871068 7.73761 0.871068 8.10433 1.09773 8.331C1.3244 8.55633 1.69105 8.55633 1.91772 8.331L4.73641 5.51232L7.55372 8.331C7.78039 8.55633 8.14708 8.55633 8.37374 8.331C8.60041 8.10433 8.60041 7.73761 8.37374 7.51095L5.55639 4.69233L8.37374 1.87364C8.60041 1.64698 8.60041 1.28032 8.37374 1.05366C8.14841 0.828323 7.78039 0.828323 7.55506 1.05366L4.73641 3.87228L1.91772 1.05366C1.69105 0.828323 1.3244 0.828323 1.09773 1.05366C0.871068 1.28032 0.871068 1.64828 1.09773 1.87495Z" fill="#131112"/>
</svg>
